<mxfile host="app.diagrams.net" modified="2022-06-15T08:18:56.087Z" agent="5.0 (Macintosh; Intel Mac OS X 10_15_7) AppleWebKit/537.36 (KHTML, like Gecko) Chrome/102.0.0.0 Safari/537.36" etag="BzaxqR6ODbd6XBuDDKbI" version="14.8.3" type="github">
  <diagram id="VqC1YVHutg5Xob2owV4o" name="Page-1">
    <mxGraphModel dx="946" dy="614" grid="1" gridSize="10" guides="1" tooltips="1" connect="1" arrows="1" fold="1" page="1" pageScale="1" pageWidth="827" pageHeight="1169" math="0" shadow="0">
      <root>
        <mxCell id="0" />
        <mxCell id="1" parent="0" />
        <mxCell id="GnkZeA96Dz2kRmL7nGpq-1" value="" style="strokeWidth=2;html=1;shape=mxgraph.flowchart.start_1;whiteSpace=wrap;" vertex="1" parent="1">
          <mxGeometry x="320" y="90" width="100" height="60" as="geometry" />
        </mxCell>
        <mxCell id="GnkZeA96Dz2kRmL7nGpq-2" value="" style="strokeWidth=2;html=1;shape=mxgraph.flowchart.terminator;whiteSpace=wrap;" vertex="1" parent="1">
          <mxGeometry x="150" y="20" width="100" height="60" as="geometry" />
        </mxCell>
        <mxCell id="GnkZeA96Dz2kRmL7nGpq-3" value="" style="strokeWidth=2;html=1;shape=mxgraph.flowchart.decision;whiteSpace=wrap;" vertex="1" parent="1">
          <mxGeometry x="70" y="80" width="100" height="100" as="geometry" />
        </mxCell>
        <mxCell id="GnkZeA96Dz2kRmL7nGpq-4" value="" style="rounded=1;whiteSpace=wrap;html=1;absoluteArcSize=1;arcSize=14;strokeWidth=2;" vertex="1" parent="1">
          <mxGeometry x="90" y="250" width="100" height="100" as="geometry" />
        </mxCell>
        <mxCell id="GnkZeA96Dz2kRmL7nGpq-5" value="Actor" style="shape=umlActor;verticalLabelPosition=bottom;verticalAlign=top;html=1;" vertex="1" parent="1">
          <mxGeometry x="480" y="240" width="30" height="60" as="geometry" />
        </mxCell>
        <mxCell id="GnkZeA96Dz2kRmL7nGpq-6" value="" style="verticalLabelPosition=bottom;verticalAlign=top;html=1;shape=mxgraph.basic.smiley;rotation=0;" vertex="1" parent="1">
          <mxGeometry x="740" y="420" width="70" height="100" as="geometry" />
        </mxCell>
        <mxCell id="GnkZeA96Dz2kRmL7nGpq-7" value="" style="shape=cube;whiteSpace=wrap;html=1;boundedLbl=1;backgroundOutline=1;darkOpacity=0.05;darkOpacity2=0.1;size=10;" vertex="1" parent="1">
          <mxGeometry x="550" y="400" width="120" height="185" as="geometry" />
        </mxCell>
        <mxCell id="GnkZeA96Dz2kRmL7nGpq-8" value="" style="endArrow=classic;html=1;exitX=0.214;exitY=0.39;exitDx=0;exitDy=0;exitPerimeter=0;" edge="1" parent="1" source="GnkZeA96Dz2kRmL7nGpq-6">
          <mxGeometry width="50" height="50" relative="1" as="geometry">
            <mxPoint x="390" y="480" as="sourcePoint" />
            <mxPoint x="620" y="451" as="targetPoint" />
          </mxGeometry>
        </mxCell>
        <mxCell id="GnkZeA96Dz2kRmL7nGpq-9" value="" style="endArrow=classic;html=1;exitX=0.257;exitY=0.43;exitDx=0;exitDy=0;exitPerimeter=0;" edge="1" parent="1" source="GnkZeA96Dz2kRmL7nGpq-6">
          <mxGeometry width="50" height="50" relative="1" as="geometry">
            <mxPoint x="764.98" y="469" as="sourcePoint" />
            <mxPoint x="620" y="490" as="targetPoint" />
          </mxGeometry>
        </mxCell>
      </root>
    </mxGraphModel>
  </diagram>
</mxfile>
